<svg width="211" height="20" viewBox="0 0 211 20" fill="none" xmlns="http://www.w3.org/2000/svg">
<g clip-path="url(#clip0_10_36965)">
<path d="M19.921 6.97317H12.314L9.96381 -0.219727L7.60702 6.97317L0 6.9659L6.1603 11.4165L3.80351 18.6014L9.96381 14.1588L16.1168 18.6014L13.7673 11.4158L19.921 6.97317Z" fill="#F2C94C"/>
<path d="M14.3088 13.379L13.7801 11.752L9.97656 14.4949L14.3088 13.379Z" fill="#F2994A"/>
</g>
<g clip-path="url(#clip1_10_36965)">
<path d="M131.914 17.3527H146.396V2.88965H131.914V17.3527Z" fill="#F2C94C"/>
<path d="M144.26 9.0426L136.046 15.0018L137.244 11.3188L134.107 9.0426H137.985L139.183 5.35938L140.381 9.0426H144.26ZM139.183 12.7258L141.427 12.2546L142.321 15.0018L139.183 12.7258Z" fill="white"/>
<path d="M147.918 17.3527H162.4V2.88965H147.918V17.3527Z" fill="#F2C94C"/>
<path d="M147.918 17.3527H155.159V2.88965H147.918V17.3527Z" fill="#F2C94C"/>
<path d="M155.332 12.6697L157.256 12.2545L158.146 15.0641L155.129 12.8156L151.995 15.0641L153.211 11.3678L150.026 9.08332H153.963L155.179 5.38672L156.395 9.08332H160.332L155.332 12.6697Z" fill="white"/>
<path d="M163.933 17.3527H178.415V2.88965H163.933V17.3527Z" fill="#F2C94C"/>
<path d="M163.933 17.3527H171.174V2.88965H163.933V17.3527Z" fill="#F2C94C"/>
<path d="M176.279 9.0426L168.065 15.0018L169.263 11.3188L166.126 9.0426H170.004L171.202 5.35938L172.401 9.0426L176.279 9.0426ZM171.203 12.7258L173.446 12.2546L174.34 15.0018L171.203 12.7258Z" fill="white"/>
<path d="M179.948 17.3527H194.43V2.88965H179.948V17.3527Z" fill="#F2C94C"/>
<path d="M179.948 17.3527H187.189V2.88965H179.948V17.3527Z" fill="#F2C94C"/>
<path d="M192.293 9.0426L184.079 15.0018L185.278 11.3188L182.14 9.0426H186.018L187.217 5.35938L188.415 9.0426L192.293 9.0426ZM187.217 12.7258L189.46 12.2546L190.354 15.0018L187.217 12.7258Z" fill="white"/>
<path d="M195.952 17.3527H210.434V2.88965H195.952V17.3527Z" fill="#F2C94C"/>
<path d="M195.952 17.3527H203.193V2.88965H195.952V17.3527Z" fill="#F2C94C"/>
<path d="M208.297 9.0426L200.083 15.0018L201.282 11.3188L198.144 9.0426H202.022L203.221 5.35938L204.419 9.0426H208.297ZM203.221 12.7258L205.464 12.2546L206.358 15.0018L203.221 12.7258Z" fill="white"/>
</g>
<defs>
<clipPath id="clip0_10_36965">
<rect width="20" height="20" fill="white"/>
</clipPath>
<clipPath id="clip1_10_36965">
<rect width="78.41" height="14.36" fill="white" transform="translate(131.9 2.88965)"/>
</clipPath>
</defs>
</svg>
