<svg width="100" height="43" viewBox="0 0 100 43" fill="none" xmlns="http://www.w3.org/2000/svg">
<circle cx="78.5692" cy="21.4286" r="20.9286" fill="#FFA229" stroke="#FCDDEC"/>
<path d="M73.7693 30.3947C73.4523 30.0778 73.4235 29.5817 73.6829 29.2322L73.7693 29.132L81.4709 21.4301L73.7693 13.7281C73.4523 13.4111 73.4235 12.9151 73.6829 12.5655L73.7693 12.4654C74.0863 12.1484 74.5823 12.1196 74.9319 12.3789L75.032 12.4654L83.3653 20.7987C83.6823 21.1157 83.7111 21.6117 83.4518 21.9613L83.3653 22.0614L75.032 30.3947C74.6833 30.7434 74.118 30.7434 73.7693 30.3947Z" fill="white"/>
<circle cx="21.4286" cy="21.4286" r="20.9286" fill="white" stroke="#FCDDEC"/>
<path d="M26.2229 30.3947C26.5398 30.0778 26.5687 29.5817 26.3093 29.2322L26.2229 29.132L18.5213 21.4301L26.2229 13.7281C26.5398 13.4111 26.5687 12.9151 26.3093 12.5655L26.2229 12.4654C25.9059 12.1484 25.4099 12.1196 25.0603 12.3789L24.9602 12.4654L16.6268 20.7987C16.3099 21.1157 16.281 21.6117 16.5404 21.9613L16.6268 22.0614L24.9602 30.3947C25.3089 30.7434 25.8742 30.7434 26.2229 30.3947Z" fill="#1478F1"/>
</svg>
